<?xml version="1.0" encoding="UTF-8" standalone="no"?>
<svg
   version="1.0"
   width="1200"
   height="1070"
   viewBox="0 0 12000 10700"
   preserveAspectRatio="xMidYMid"
   id="svg13"
   xmlns="http://www.w3.org/2000/svg"
   xmlns:svg="http://www.w3.org/2000/svg">
  <defs
     id="defs17" />
  <g
     id="layer101"
     fill="#000000"
     stroke="none"
     style="fill:#0077c0;fill-opacity:1">
    <path
       d="m 4935,10689 c -1117,-74 -2139,-481 -2999,-1193 -138,-114 -354,-316 -462,-433 -60,-65 -111,-120 -115,-123 -17,-16 -215,-258 -265,-324 C 593,7948 248,7173 102,6385 43,6069 26,5925 8,5587 -1,5400 -1,5300 8,5112 26,4775 43,4631 102,4315 124,4194 170,3998 204,3878 520,2766 1167,1801 2071,1095 2826,506 3749,133 4705,31 c 677,-73 1375,-8 2025,189 58,18 120,36 138,41 66,20 370,138 472,184 331,149 613,311 930,533 160,113 550,440 550,462 0,5 -50,91 -111,192 -62,100 -289,479 -506,841 l -394,657 h -535 -535 l 28,-47 c 24,-42 240,-405 705,-1182 116,-193 138,-235 126,-246 -25,-24 -203,-132 -333,-203 -811,-440 -1742,-602 -2662,-462 -209,31 -533,108 -645,152 l -28,10 v 1992 1992 l 23,19 c 12,10 101,91 197,180 96,89 209,192 250,230 41,37 104,95 140,129 36,34 117,108 180,166 63,58 122,112 130,120 8,8 67,62 130,120 63,58 122,112 130,120 8,8 67,62 130,120 63,58 144,132 180,166 64,60 184,170 206,189 6,6 61,57 123,114 61,57 122,113 134,123 12,11 45,41 72,67 28,26 104,96 170,156 66,61 127,117 135,125 8,8 67,62 130,120 63,58 122,112 130,120 8,8 67,62 130,120 63,58 144,132 180,166 36,33 92,85 125,115 57,53 198,182 460,424 66,60 144,133 175,160 80,73 155,142 244,225 43,40 81,69 85,64 3,-5 35,-34 71,-64 232,-195 477,-453 658,-694 95,-124 235,-336 310,-467 63,-110 207,-395 232,-462 l 15,-37 95,73 c 52,40 190,144 305,232 339,257 365,277 371,287 14,22 -233,465 -389,698 -65,97 -282,389 -324,435 -10,11 -45,52 -77,90 -99,118 -474,485 -605,594 -576,478 -1187,806 -1896,1015 -549,162 -1186,233 -1750,195 z m 800,-953 c 293,-39 544,-93 810,-176 175,-54 575,-221 575,-240 0,-6 -65,-68 -285,-270 -32,-30 -64,-59 -71,-65 -6,-5 -61,-57 -123,-114 -61,-57 -122,-113 -134,-123 -12,-11 -44,-41 -72,-67 -27,-26 -104,-96 -170,-156 -66,-61 -127,-117 -135,-125 -8,-8 -67,-62 -130,-120 -63,-58 -144,-132 -180,-166 -36,-33 -94,-87 -130,-120 -36,-32 -94,-86 -130,-120 -36,-33 -94,-87 -130,-120 -36,-32 -94,-86 -130,-120 -36,-33 -92,-85 -125,-115 -269,-247 -611,-562 -660,-608 -33,-31 -116,-108 -185,-171 -69,-63 -152,-140 -185,-171 -33,-30 -94,-87 -135,-125 l -75,-69 -3,1584 c -1,872 1,1588 5,1592 24,22 367,110 558,143 316,55 450,65 815,61 203,-2 345,-9 425,-19 z M 3025,5352 V 1573 l -61,37 c -62,39 -219,148 -265,184 -14,12 -41,32 -59,46 -107,80 -207,168 -368,325 -849,825 -1332,1980 -1332,3185 0,806 215,1592 624,2285 269,456 656,898 1066,1218 89,69 384,277 394,277 1,0 1,-1700 1,-3778 z"
       id="path2"
       style="fill:#0077c0;fill-opacity:1" />
    <path
       d="m 8904,6385 c -293,-64 -523,-301 -604,-622 -24,-96 -27,-298 -6,-400 66,-313 294,-564 581,-639 93,-25 274,-25 365,0 83,22 190,75 258,126 29,22 55,40 57,40 3,0 5,-24 5,-54 0,-33 5,-58 14,-65 9,-8 91,-11 277,-9 l 264,3 3,783 2,782 -277,-2 -278,-3 -3,-57 c -2,-32 -5,-58 -8,-58 -3,0 -24,15 -46,34 -58,50 -191,114 -283,136 -93,23 -229,25 -321,5 z m 441,-472 c 87,-30 168,-101 210,-184 98,-192 20,-427 -173,-521 -61,-29 -75,-32 -157,-32 -114,0 -184,26 -253,92 -65,62 -99,124 -118,212 -59,283 219,529 491,433 z"
       id="path4"
       style="fill:#0077c0;fill-opacity:1" />
    <path
       d="m 6890,6155 v -195 h -540 -540 v -241 -240 l 47,-77 c 93,-153 357,-590 428,-707 40,-66 137,-226 215,-355 79,-129 186,-307 240,-395 53,-88 103,-170 111,-182 14,-23 14,-23 306,-23 h 293 v 865 865 h 150 c 83,0 150,1 150,3 0,5 -93,243 -144,370 l -48,117 h -43 c -23,0 -47,6 -54,13 -6,8 -12,81 -13,193 l -3,179 -277,3 -278,2 z m -2,-1072 c -2,-298 -6,-388 -15,-388 -7,0 -109,153 -227,340 -118,187 -221,349 -229,360 -7,11 -22,32 -31,48 l -18,27 h 261 261 z"
       id="path6"
       style="fill:#0077c0;fill-opacity:1" />
    <path
       d="m 10495,6318 c -3,-7 -4,-573 -3,-1258 l 3,-1245 h 280 280 l 3,1258 2,1257 h -280 c -215,0 -282,-3 -285,-12 z"
       id="path8"
       style="fill:#0077c0;fill-opacity:1" />
    <path
       d="M 11430,5070 V 3810 l 283,2 282,3 3,1258 2,1257 h -285 -285 z"
       id="path10"
       style="fill:#0077c0;fill-opacity:1" />
  </g>
</svg>
